# xmcd CD database file
#
# Track frame offsets:
#	183
#	21033
#	41058
#	72758
#	88433
#	102895
#	117220
#	130533
#	148270
#	162220
#	179083
#	198508
#
# Disc length: 2880 seconds
#
# Revision: 0
# Processed by: cddbd v1.4PL0 Copyright (c) Steve Scherf et al.
# Submitted via: CDex 1.51
#
DISCID=ac0b3e0c
DTITLE=Big Mama and The Blues Messangers - Blues, blues, blues!
DYEAR=1992
DGENRE=Blues
TTITLE0=Everyday I have the Blues
TTITLE1=WOKE UP THIS MORNING
TTITLE2=I NEED YOUR LOVE SO BAD
TTITLE3=BORN UNDER A BAD SIGN
TTITLE4=MADISON BLUES
TTITLE5=BLUES, BLUES, BLUES
TTITLE6=FLIP, FLOP and FLY
TTITLE7=ALL YOUR LOVE
TTITLE8=MY BABE'S GOT A BAD FEET
TTITLE9=NOBODY KNOWS YOU WHEN YOU'RE DOWN AND OUT
TTITLE10=KILLING FLOOR
TTITLE11=I JUST CAN'T BE SATISFIED
EXTD=YEAR: 1992
EXTT0=
EXTT1=
EXTT2=
EXTT3=
EXTT4=
EXTT5=
EXTT6=
EXTT7=
EXTT8=
EXTT9=
EXTT10=
EXTT11=
PLAYORDER=
